<svg width="16" height="16" viewBox="0 0 16 16" fill="none" xmlns="http://www.w3.org/2000/svg">
<path d="M13.625 1.8125H2.375C1.44302 1.8125 0.6875 2.56802 0.6875 3.5V13.625C0.6875 14.557 1.44302 15.3125 2.375 15.3125H13.625C14.557 15.3125 15.3125 14.557 15.3125 13.625V3.5C15.3125 2.56802 14.557 1.8125 13.625 1.8125Z" stroke="#FFDB70" stroke-width="1.23047" stroke-linejoin="round"/>
<path d="M9.40625 8C9.87224 8 10.25 7.62224 10.25 7.15625C10.25 6.69026 9.87224 6.3125 9.40625 6.3125C8.94026 6.3125 8.5625 6.69026 8.5625 7.15625C8.5625 7.62224 8.94026 8 9.40625 8Z" fill="#FFDB70" stroke="#FFDB70" stroke-width="0.0351562"/>
<path d="M12.2188 8C12.6847 8 13.0625 7.62224 13.0625 7.15625C13.0625 6.69026 12.6847 6.3125 12.2188 6.3125C11.7528 6.3125 11.375 6.69026 11.375 7.15625C11.375 7.62224 11.7528 8 12.2188 8Z" fill="#FFDB70" stroke="#FFDB70" stroke-width="0.0351562"/>
<path d="M9.40625 10.8125C9.87224 10.8125 10.25 10.4347 10.25 9.96875C10.25 9.50276 9.87224 9.125 9.40625 9.125C8.94026 9.125 8.5625 9.50276 8.5625 9.96875C8.5625 10.4347 8.94026 10.8125 9.40625 10.8125Z" fill="#FFDB70" stroke="#FFDB70" stroke-width="0.0351562"/>
<path d="M12.2188 10.8125C12.6847 10.8125 13.0625 10.4347 13.0625 9.96875C13.0625 9.50276 12.6847 9.125 12.2188 9.125C11.7528 9.125 11.375 9.50276 11.375 9.96875C11.375 10.4347 11.7528 10.8125 12.2188 10.8125Z" fill="#FFDB70" stroke="#FFDB70" stroke-width="0.0351562"/>
<path d="M3.78125 10.8125C4.24724 10.8125 4.625 10.4347 4.625 9.96875C4.625 9.50276 4.24724 9.125 3.78125 9.125C3.31526 9.125 2.9375 9.50276 2.9375 9.96875C2.9375 10.4347 3.31526 10.8125 3.78125 10.8125Z" fill="#FFDB70" stroke="#FFDB70" stroke-width="0.0351562"/>
<path d="M6.59375 10.8125C7.05974 10.8125 7.4375 10.4347 7.4375 9.96875C7.4375 9.50276 7.05974 9.125 6.59375 9.125C6.12776 9.125 5.75 9.50276 5.75 9.96875C5.75 10.4347 6.12776 10.8125 6.59375 10.8125Z" fill="#FFDB70" stroke="#FFDB70" stroke-width="0.0351562"/>
<path d="M3.78125 13.625C4.24724 13.625 4.625 13.2472 4.625 12.7812C4.625 12.3153 4.24724 11.9375 3.78125 11.9375C3.31526 11.9375 2.9375 12.3153 2.9375 12.7812C2.9375 13.2472 3.31526 13.625 3.78125 13.625Z" fill="#FFDB70" stroke="#FFDB70" stroke-width="0.0351562"/>
<path d="M6.59375 13.625C7.05974 13.625 7.4375 13.2472 7.4375 12.7812C7.4375 12.3153 7.05974 11.9375 6.59375 11.9375C6.12776 11.9375 5.75 12.3153 5.75 12.7812C5.75 13.2472 6.12776 13.625 6.59375 13.625Z" fill="#FFDB70" stroke="#FFDB70" stroke-width="0.0351562"/>
<path d="M9.40625 13.625C9.87224 13.625 10.25 13.2472 10.25 12.7812C10.25 12.3153 9.87224 11.9375 9.40625 11.9375C8.94026 11.9375 8.5625 12.3153 8.5625 12.7812C8.5625 13.2472 8.94026 13.625 9.40625 13.625Z" fill="#FFDB70" stroke="#FFDB70" stroke-width="0.0351562"/>
<path d="M3.5 0.6875V1.8125M12.5 0.6875V1.8125" stroke="#FFDB70" stroke-width="1.23047" stroke-linecap="round" stroke-linejoin="round"/>
<path d="M15.3125 4.625H0.6875" stroke="#FFDB70" stroke-width="1.23047" stroke-linejoin="round"/>
</svg>
