<svg width="17" height="17" viewBox="0 0 17 17" fill="none" xmlns="http://www.w3.org/2000/svg">
<path d="M12.0038 2.25623C12.8733 2.25883 13.7064 2.60539 14.3213 3.22022C14.9361 3.83506 15.2827 4.66821 15.2853 5.53771V12.1C15.2827 12.9695 14.9361 13.8026 14.3213 14.4175C13.7064 15.0323 12.8733 15.3789 12.0038 15.3815H5.44152C4.57202 15.3789 3.73887 15.0323 3.12403 14.4175C2.5092 13.8026 2.16264 12.9695 2.16004 12.1V5.53771C2.16264 4.66821 2.5092 3.83506 3.12403 3.22022C3.73887 2.60539 4.57202 2.25883 5.44152 2.25623H12.0038ZM12.0038 0.943848H5.44152C2.91484 0.943848 0.847656 3.01103 0.847656 5.53771V12.1C0.847656 14.6267 2.91484 16.6938 5.44152 16.6938H12.0038C14.5305 16.6938 16.5977 14.6267 16.5977 12.1V5.53771C16.5977 3.01103 14.5305 0.943848 12.0038 0.943848Z" fill="#D6D6D6" fill-opacity="0.7" stroke="#D6D6D6" stroke-opacity="0.7" stroke-width="0.0351562"/>
<path d="M12.9882 5.53772C12.7935 5.53772 12.6032 5.47999 12.4413 5.37182C12.2794 5.26366 12.1532 5.10992 12.0787 4.93005C12.0042 4.75018 11.9847 4.55225 12.0227 4.3613C12.0607 4.17035 12.1544 3.99495 12.2921 3.85729C12.4298 3.71962 12.6052 3.62587 12.7961 3.58788C12.9871 3.5499 13.185 3.5694 13.3649 3.6439C13.5447 3.71841 13.6985 3.84458 13.8066 4.00646C13.9148 4.16834 13.9725 4.35865 13.9725 4.55334C13.9728 4.68269 13.9475 4.81082 13.8982 4.93038C13.8488 5.04993 13.7763 5.15856 13.6848 5.25002C13.5934 5.34149 13.4848 5.41398 13.3652 5.46336C13.2456 5.51273 13.1175 5.538 12.9882 5.53772ZM8.72266 6.19374C9.24186 6.19374 9.7494 6.3477 10.1811 6.63615C10.6128 6.9246 10.9493 7.33459 11.1479 7.81426C11.3466 8.29394 11.3986 8.82176 11.2973 9.33099C11.196 9.84021 10.946 10.308 10.5789 10.6751C10.2118 11.0422 9.74402 11.2922 9.23479 11.3935C8.72557 11.4948 8.19775 11.4428 7.71807 11.2441C7.23839 11.0455 6.8284 10.709 6.53995 10.2773C6.2515 9.84559 6.09754 9.33805 6.09754 8.81885C6.09829 8.12286 6.3751 7.45558 6.86724 6.96344C7.35939 6.47129 8.02666 6.19448 8.72266 6.19374ZM8.72266 4.88135C7.94389 4.88135 7.18262 5.11228 6.5351 5.54494C5.88758 5.9776 5.3829 6.59255 5.08488 7.31204C4.78686 8.03152 4.70889 8.82322 4.86082 9.58702C5.01275 10.3508 5.38776 11.0524 5.93843 11.6031C6.48909 12.1538 7.19069 12.5288 7.95449 12.6807C8.71829 12.8326 9.50999 12.7546 10.2295 12.4566C10.949 12.1586 11.5639 11.6539 11.9966 11.0064C12.4292 10.3589 12.6602 9.59762 12.6602 8.81885C12.6602 7.77456 12.2453 6.77304 11.5069 6.03462C10.7685 5.2962 9.76695 4.88135 8.72266 4.88135Z" fill="#D6D6D6" fill-opacity="0.7" stroke="#D6D6D6" stroke-opacity="0.7" stroke-width="0.0351562"/>
</svg>
