<svg width="12" height="16" viewBox="0 0 12 16" fill="none" xmlns="http://www.w3.org/2000/svg">
<path d="M6 0.6875C3.20508 0.6875 0.9375 2.84574 0.9375 5.50391C0.9375 8.5625 4.3125 13.4095 5.55176 15.0836C5.6032 15.1543 5.67062 15.2118 5.74852 15.2515C5.82642 15.2911 5.91259 15.3118 6 15.3118C6.08741 15.3118 6.17358 15.2911 6.25148 15.2515C6.32938 15.2118 6.3968 15.1543 6.44824 15.0836C7.6875 13.4102 11.0625 8.56496 11.0625 5.50391C11.0625 2.84574 8.79492 0.6875 6 0.6875Z" stroke="#FFDB70" stroke-width="1.23047" stroke-linecap="round" stroke-linejoin="round"/>
<path d="M6 7.4375C6.93198 7.4375 7.6875 6.68198 7.6875 5.75C7.6875 4.81802 6.93198 4.0625 6 4.0625C5.06802 4.0625 4.3125 4.81802 4.3125 5.75C4.3125 6.68198 5.06802 7.4375 6 7.4375Z" stroke="#FFDB70" stroke-width="1.23047" stroke-linecap="round" stroke-linejoin="round"/>
</svg>
