<svg width="40" height="39" viewBox="0 0 40 39" fill="none" xmlns="http://www.w3.org/2000/svg">
<path d="M14.6683 21.1583C17.238 14.4325 19.8087 7.70729 22.3803 0.98256L22.8421 0.721672C22.9176 0.7015 22.9967 0.7015 23.0723 0.721672C23.1374 0.741266 23.1982 0.774425 23.2511 0.819216C23.3041 0.864007 23.3481 0.919535 23.3806 0.98256C29.6434 17.3038 32.1809 23.9044 32.6072 24.9811C32.8586 25.619 33.022 25.9884 33.3176 26.8193C33.6927 27.8569 33.7239 28.074 34.0095 28.629C34.263 29.1075 34.5399 29.5716 34.8392 30.0193C34.9714 30.2169 35.0864 30.3783 35.1703 30.4944C35.4777 31.1219 35.9593 31.6341 36.5499 31.9617C37.1764 32.2949 37.8641 32.3492 38.539 32.4035C38.8089 32.4246 39.0334 32.4276 39.1854 32.4276L39.3929 32.7458C39.363 32.9449 39.3474 33.0474 39.3474 33.0474C39.3474 33.0474 36.1975 33.1741 33.2522 33.1213C32.3457 33.1047 30.9591 33.0625 29.2427 32.9374C29.1828 32.9571 29.1187 32.958 29.0582 32.9401C28.9978 32.9222 28.9434 32.8861 28.9018 32.8363C28.8523 32.7602 28.8329 32.6666 28.8477 32.5755C28.8626 32.4844 28.9106 32.4032 28.9813 32.3492C29.0694 32.3025 29.1532 32.3824 29.3038 32.3251C29.3561 32.306 29.4043 32.2763 29.4459 32.2376C29.4949 32.2674 29.5499 32.2841 29.6063 32.2865C29.6627 32.2889 29.7188 32.2768 29.7699 32.2512C29.8439 32.1939 29.8946 32.1089 29.9117 32.0135C29.9289 31.918 29.9112 31.8191 29.8622 31.737C29.8011 31.5394 29.6988 31.2182 29.5781 30.8231C28.0663 26.1634 27.113 24.4472 25.6908 20.4178C25.0315 18.5464 25.2972 19.0847 24.1677 15.7128C23.2527 12.9788 22.4514 10.756 21.9044 9.26758C19.5231 15.8023 17.1409 22.3405 14.7578 28.8823C13.7419 30.5668 11.9432 31.3766 10.3619 30.9302C8.83597 30.4989 8.11563 29.0723 7.98349 28.7979C7.62652 27.8966 7.57628 26.8915 7.84141 25.9553C8.03363 25.3152 8.37128 24.7351 8.8246 24.2663C9.39139 23.6101 10.1582 23.1872 10.9899 23.0722C11.8216 22.9572 12.6648 23.1573 13.3711 23.6374C13.3379 22.8833 13.0656 22.1632 12.5982 21.5941C11.9375 20.8295 11.0822 20.6667 10.2894 20.5159C9.51755 20.3707 8.72698 20.3788 7.95792 20.54C7.15568 20.7208 6.40443 21.0983 5.76422 21.6423C4.61622 22.6271 4.21272 23.8576 4.00671 24.488C2.95106 27.7106 4.45852 30.9121 4.80519 31.6103C5.85402 33.2884 7.31513 34.6301 9.0305 35.4905C10.7459 36.3509 12.6502 36.6971 14.5376 36.4917C15.1528 36.5008 18.0313 36.4706 20.4239 34.091C21.8155 32.6889 22.7202 30.8291 22.9913 28.8129C23.1519 27.5435 22.9834 26.2515 22.5039 25.0761C21.8887 23.6043 20.9127 22.7311 20.2165 22.1083C19.7014 21.6494 19.1451 21.2453 18.5556 20.9019C19.0566 19.5578 19.562 18.2131 20.0716 16.868C22.8758 18.4138 24.9891 21.0755 25.9494 24.2708C26.3009 25.9855 26.2569 27.765 25.821 29.4577C25.3851 31.1505 24.5703 32.7064 23.4459 33.993C21.7326 35.6381 19.6978 36.8611 17.4873 37.5744C15.2767 38.2876 12.945 38.4736 10.6588 38.1189C8.66157 37.8775 6.7607 37.0768 5.15109 35.7987C3.54149 34.5206 2.28106 32.8112 1.49902 30.8457C1.26885 30.1551 0.42632 27.3773 1.64109 24.3175C2.28056 22.7393 3.33275 21.3886 4.67306 20.4254C5.52904 19.65 6.5688 19.1384 7.67944 18.946C8.40405 18.8314 9.0093 18.8917 9.79357 18.9701C10.5992 19.0516 11.2968 19.1209 12.1365 19.4919C12.6535 19.7276 13.1483 20.0149 13.6141 20.35C13.9784 20.5999 14.3303 20.8697 14.6683 21.1583Z" fill="white" stroke="white" stroke-miterlimit="10"/>
<path d="M18.8459 2.00002L17.5021 6.6634C17.4491 6.42588 17.0427 4.7443 15.4049 3.88518C14.4313 3.39 13.3068 3.30666 12.2738 3.6531C11.4678 3.94611 10.7635 4.47511 10.2481 5.17453C9.9171 5.59681 9.69494 6.09757 9.60199 6.63082C9.49981 7.33892 9.63419 8.06164 9.98329 8.68157C10.0296 8.76029 10.0932 8.86344 10.1713 8.98287C10.2203 9.05752 10.2812 9.14845 10.3567 9.25431C10.3567 9.25431 10.4891 9.44025 10.6214 9.61126C10.8597 9.89922 11.1158 10.1712 11.388 10.4256C12.0367 11.0081 12.7325 11.5329 13.468 11.9945C13.9102 12.2836 14.4967 12.6514 15.2103 13.0531L13.791 16.7909C13.4309 16.533 12.892 16.1435 12.242 15.6658C10.8425 14.637 10.1435 14.1226 9.7569 13.7806C9.06049 13.1617 8.1218 12.1031 7.37376 10.2736C7.24687 9.75429 7.18284 9.22097 7.18311 8.68564C7.18311 8.4902 7.2493 4.8298 10.0852 3.02878C11.5601 2.09231 13.0575 2.12081 13.8612 2.13574C15.0351 2.16092 16.1901 2.44271 17.2492 2.96228L17.7007 2.20224C17.8543 2.0874 18.0305 2.00821 18.217 1.97016C18.4259 1.92687 18.6419 1.93712 18.8459 2.00002Z" fill="white" stroke="white" stroke-miterlimit="10"/>
</svg>
