<svg width="12" height="19" viewBox="0 0 12 19" fill="none" xmlns="http://www.w3.org/2000/svg">
<path d="M8.8125 0.762512H3.1875C2.25552 0.762512 1.5 1.51803 1.5 2.45001V15.95C1.5 16.882 2.25552 17.6375 3.1875 17.6375H8.8125C9.74448 17.6375 10.5 16.882 10.5 15.95V2.45001C10.5 1.51803 9.74448 0.762512 8.8125 0.762512Z" stroke="#FFDB70" stroke-width="1.23047" stroke-linecap="round" stroke-linejoin="round"/>
<path d="M3.1875 0.762512H4.03125C4.10584 0.762512 4.17738 0.792144 4.23012 0.844888C4.28287 0.897633 4.3125 0.96917 4.3125 1.04376C4.3125 1.19295 4.37176 1.33602 4.47725 1.44151C4.58274 1.547 4.72582 1.60626 4.875 1.60626H7.125C7.27418 1.60626 7.41726 1.547 7.52275 1.44151C7.62824 1.33602 7.6875 1.19295 7.6875 1.04376C7.6875 0.96917 7.71713 0.897633 7.76988 0.844888C7.82262 0.792144 7.89416 0.762512 7.96875 0.762512H8.8125" stroke="#FFDB70" stroke-width="1.23047" stroke-linecap="round" stroke-linejoin="round"/>
</svg>
