<svg width="18" height="14" viewBox="0 0 18 14" fill="none" xmlns="http://www.w3.org/2000/svg">
<path d="M17.4375 2.04963C16.8045 2.32467 16.1347 2.50588 15.4494 2.58752C16.1696 2.16578 16.7113 1.49576 16.9727 0.703143C16.2918 1.10132 15.548 1.3807 14.7734 1.52931C14.4471 1.18743 14.0548 0.915453 13.6202 0.729913C13.1856 0.544372 12.7178 0.449145 12.2453 0.450018C10.3321 0.450018 8.78379 1.9758 8.78379 3.85666C8.78243 4.11828 8.81241 4.37912 8.87309 4.63361C7.50118 4.5693 6.1578 4.21932 4.9289 3.60608C3.7 2.99284 2.61263 2.12984 1.73637 1.07228C1.42895 1.59053 1.26637 2.18183 1.26562 2.78439C1.26562 3.96564 1.88191 5.00978 2.8125 5.6215C2.26115 5.60842 1.72111 5.46249 1.2382 5.19611V5.2383C1.2382 6.89064 2.43352 8.26525 4.01555 8.57814C3.71805 8.65745 3.41148 8.69763 3.10359 8.69767C2.88513 8.69806 2.66715 8.67686 2.45285 8.63439C2.89266 9.98791 4.1727 10.9723 5.68898 11.0004C4.45689 11.95 2.9442 12.4632 1.38867 12.4594C1.11256 12.459 0.836707 12.4425 0.5625 12.4102C2.14495 13.4206 3.98441 13.9551 5.86195 13.95C12.2379 13.95 15.7212 8.75744 15.7212 4.25392C15.7212 4.10627 15.7173 3.95861 15.7103 3.81447C16.3864 3.33355 16.9713 2.73592 17.4375 2.04963Z" fill="#D6D6D6" fill-opacity="0.7" stroke="#D6D6D6" stroke-opacity="0.7" stroke-width="0.0351562"/>
</svg>
